
<svg class='fill' fill='transparent' version="1.1" id="Слой_1_xA0_Изображение_1_"
	 xmlns="http://www.w3.org/2000/svg" xmlns:xlink="http://www.w3.org/1999/xlink" x="0px" y="0px" viewBox="0 0 235.44 181.44"
	 style="enable-background:new 0 0 235.44 181.44;" xml:space="preserve">
<!-- <style type="text/css">
	.st0{fill:#fafafa;}
</style> -->
<g  stroke='#f0f0f0'  stroke-width='1'>

	<path class="logo-fill"  d="M212.37,16.25c1.8,0.35,3.45,1.03,4.93,2.1c2.48,1.77,3.99,4.17,4.88,6.96c0.83,2.6,1.2,5.3,1.39,8
		c0.17,2.46-0.59,4.81-1.28,7.14c-1.21,4.08-2.94,7.95-4.92,11.73c-2.59,4.95-5.51,9.71-9.08,14.08
		c-4.86,5.95-10.59,10.97-17.18,15.1c-3.7,2.32-7.64,4.12-11.76,5.65c-3.02,1.12-6.06,2.08-9.21,2.74c-0.18,0.04-0.35,0.15-0.46,0.2
		c1.02,1.04,2.03,2.07,3.04,3.1c1.72,1.76,2.7,3.93,3.56,6.14c1.43,3.64,2.41,7.4,2.86,11.27c0.33,2.81,0.67,5.61,0.92,8.43
		c0.22,2.46,0.32,4.93,0.47,7.39c0.16,2.69,0.23,5.38,0.49,8.06c0.4,4.09,0.79,8.18,1.43,12.24c0.53,3.35,1.31,6.66,2.49,9.87
		c1.03,2.78,2.47,5.32,4.5,7.54c0.19,0.21,0.32,0.46,0.56,0.81c-2.35,0.33-4.53,0.43-6.74,0.21c-1.94-0.19-3.84-0.44-5.71-1
		c-2.42-0.73-4.56-1.91-6.33-3.66c-0.27-0.26-0.43-0.62-0.65-0.92c-0.24-0.31-0.49-0.62-0.75-0.92c-0.17-0.2-0.4-0.38-0.5-0.6
		c-0.62-1.41-1.16-2.86-1.18-4.42c-0.09-8.07-0.12-16.13-0.28-24.2c-0.06-3.21-0.39-6.42-0.66-9.63c-0.2-2.45-0.39-4.91-0.76-7.35
		c-0.49-3.17-1.13-6.31-1.76-9.46c-0.54-2.72-1.29-5.4-2.72-7.82c-0.76-1.29-1.74-2.47-2.73-3.62c-0.6-0.69-1.32-0.51-1.73,0.28
		c-2.62,5.02-5.27,10.02-7.86,15.05c-3.38,6.58-6.75,13.16-10.02,19.78c-3.49,7.05-6.86,14.16-10.29,21.24
		c-0.75,1.56-1.52,3.11-2.31,4.72c-3.34-0.25-6.72-0.03-9.87-1.35c-3.09-1.3-4.85-3.56-5.26-6.85c-0.28-2.27,0.19-4.39,0.99-6.46
		c2.28-5.87,4.63-11.71,6.95-17.57c0.12-0.3,0.22-0.61,0.41-1.14c-6.61,2.08-13.16,3.45-19.55,4.79c-1.06,3.15-2.04,6.17-3.09,9.17
		c-2.18,6.23-4.44,12.43-6.59,18.67c-1.47,4.24-2.81,8.53-4.22,12.79c-0.06,0.17-0.17,0.33-0.34,0.65c-1.84-0.19-3.73-0.35-5.6-0.61
		c-1.07-0.15-2.11-0.47-3.16-0.72c-2.28-0.54-3.83-2-4.84-3.92c-0.6-1.14-0.64-2.48-0.37-3.74c0.54-2.48,1.08-4.96,1.77-7.4
		c1.18-4.17,2.45-8.32,3.71-12.47c0.8-2.65,1.66-5.28,2.48-7.93c0.07-0.23,0.06-0.49,0.09-0.76c-2.49,0.39-4.88,0.77-7.28,1.13
		c-1.91,0.28-3.83,0.53-5.75,0.79c-2.11,0.28-4.22,0.57-6.33,0.83c-1.58,0.19-3.16,0.34-4.74,0.52c-2.39,0.27-4.77,0.55-7.16,0.81
		c-0.93,0.1-1.86,0.17-2.78,0.31c-0.3,0.05-0.67,0.23-0.82,0.46c-2.05,3.12-4.06,6.26-6.09,9.39c-2.35,3.62-4.7,7.23-7.06,10.85
		c-0.1,0.16-0.23,0.3-0.37,0.48c-1.13-0.46-1.91-1.23-2.24-2.31c-0.12-0.4,0.04-0.96,0.25-1.35c1.38-2.56,2.78-5.11,4.24-7.62
		c1.76-3.03,3.6-6.02,5.5-9.17c-0.35-0.08-0.65-0.25-0.88-0.19c-1.6,0.48-3.24,0.34-4.87,0.38c-2.57,0.07-5.14,0.17-7.71,0.19
		c-3.36,0.03-6.56-0.59-9.51-2.22c-1.85-1.03-3.03-2.6-4.22-4.51c1.86,0,3.48,0.02,5.1,0c4.91-0.06,9.82-0.12,14.74-0.2
		c3.43-0.06,6.85-0.17,10.28-0.22c0.96-0.01,1.55-0.38,2.06-1.17c2.72-4.27,5.45-8.52,8.25-12.74c5.74-8.65,11.48-17.29,17.29-25.89
		c6.89-10.21,14.14-20.19,21.68-29.96c4.27-5.52,8.76-10.89,13.35-16.17c1.64-1.88,3.17-3.87,4.96-5.65
		c2.09-2.07,4.04-4.28,6.2-6.29c3.07-2.87,6.19-5.72,9.72-8.07c2.38-1.58,4.88-2.96,7.79-3.43c0.53-0.09,1.08-0.07,1.62-0.13
		c0.33-0.04,0.65-0.14,0.98-0.21c0.08,0,0.16,0,0.23,0c0.31,0.22,0.61,0.44,0.92,0.65c1.63,1.16,2.87,2.61,3.51,4.32
		c-0.69,0.93-1.39,1.69-1.89,2.56c-1.38,2.43-2.76,4.86-3.98,7.36c-1.24,2.56-2.35,5.19-3.41,7.83c-2.48,6.2-4.95,12.41-7.32,18.65
		c-2.94,7.71-5.83,15.44-8.66,23.19c-3.46,9.48-6.82,18.98-10.23,28.48c-1.37,3.82-2.75,7.63-4.1,11.36
		c6.52-1.19,13.08-2.39,19.62-3.58c0.28-0.77,0.5-1.53,0.83-2.24c2.15-4.68,4.22-9.4,6.52-14.02c4.48-9,9.02-17.96,13.67-26.88
		c2.79-5.35,5.7-10.65,8.76-15.87c3.56-6.05,7.26-12.03,11.04-17.95c2.71-4.24,5.68-8.34,9.52-11.74c1.34-1.19,2.65-2.55,4.87-2.01
		c1.88,0.46,3.55,2.69,3.04,4.5c-0.29,1.03-0.77,2.04-1.29,2.99c-1.13,2.05-2.43,4-3.5,6.08c-5.24,10.16-9.62,20.68-14.17,31.13
		c-0.46,1.05-0.89,2.12-1.33,3.18c0.36-0.16,0.52-0.39,0.67-0.64c3.05-5.21,6.03-10.45,9.17-15.61c4.59-7.56,9.53-14.9,15-21.91
		c4.2-5.38,8.71-10.49,14.23-14.69c2.17-1.65,4.42-3.2,7.08-4.08c1.16-0.38,2.35-0.7,3.53-1.04
		C210.18,16.25,211.27,16.25,212.37,16.25z M118.48,34.5c-1.56,1.66-3.2,3.27-4.68,5c-3.33,3.91-6.59,7.88-9.87,11.83
		c-1.82,2.19-3.65,4.38-5.41,6.62c-1.24,1.58-2.35,3.25-3.54,4.86c-6.49,8.8-13.07,17.53-19.44,26.4
		c-5.78,8.04-11.35,16.21-16.99,24.34c-1.83,2.64-3.61,5.32-5.41,7.98c-0.85,1.26-1.71,2.51-2.66,3.9c0.55,0.03,0.89,0.08,1.23,0.05
		c2.04-0.14,4.08-0.3,6.12-0.45c1.27-0.09,2.55-0.14,3.82-0.25c2.35-0.2,4.69-0.43,7.04-0.63c1.96-0.17,3.92-0.31,5.88-0.49
		c2.27-0.2,4.53-0.45,6.8-0.63c0.74-0.06,1.1-0.38,1.3-1.03c0.45-1.53,0.9-3.07,1.43-4.58c2.52-7.18,4.96-14.38,7.65-21.5
		c3.52-9.3,7.13-18.57,10.92-27.77c2.89-7.01,6.05-13.92,9.27-20.79c1.83-3.92,4.03-7.68,6.04-11.53
		C118.18,35.42,118.3,34.95,118.48,34.5c0.03-0.05,0.07-0.1,0.11-0.15C118.55,34.4,118.52,34.45,118.48,34.5z M162.41,82.78
		c0.54-0.12,0.83-0.17,1.11-0.26c2.62-0.75,5.04-1.94,7.26-3.45c5.48-3.7,10.14-8.25,14.43-13.14c2.53-2.89,4.96-5.87,7.23-8.96
		c4.79-6.51,8.92-13.42,12.44-20.65c1.4-2.87,2.69-5.8,3.33-8.93c0.25-1.23,0.56-2.49,0.18-3.77c-0.34-1.15-0.83-1.59-2.07-1.52
		c-0.68,0.04-1.42,0.14-2.02,0.44c-1.07,0.52-2.11,1.12-3.05,1.84c-3.23,2.48-5.81,5.55-8.23,8.72c-2.95,3.86-5.83,7.78-8.51,11.82
		c-3,4.51-5.78,9.15-8.58,13.78c-2.25,3.72-4.39,7.49-6.54,11.26c-1.5,2.62-2.93,5.28-4.38,7.92
		C164.18,79.43,163.37,80.99,162.41,82.78z"/>
</g>
</svg>
